<svg width="216" height="215" viewBox="0 0 216 215" fill="none" xmlns="http://www.w3.org/2000/svg">
<path d="M16.1687 58.9178C16.3072 58.9367 16.4456 58.9557 16.5882 58.9752C17.2727 59.0767 17.8951 59.2111 18.546 59.4629C18.7731 59.5383 19.0007 59.6123 19.2285 59.6855C19.3564 59.7265 19.4843 59.7676 19.616 59.8099C19.7525 59.8535 19.8889 59.8972 20.0295 59.9421C20.1741 59.9885 20.3186 60.0348 20.4675 60.0826C21.3414 60.3616 22.2172 60.6322 23.0952 60.8963C25.1267 61.5088 27.1272 62.2045 29.1273 62.9212C29.3191 62.9895 29.5109 63.0578 29.7027 63.1261C33.6575 64.5335 33.6575 64.5335 35.4916 65.305C36.1176 65.5675 36.7433 65.7871 37.3917 65.9784C37.8535 66.1256 38.2937 66.3208 38.7396 66.5141C39.2104 66.7112 39.6865 66.8885 40.1644 67.0656C41.1961 67.4487 41.1961 67.4487 41.6837 67.6765C42.0251 67.8313 42.3505 67.9606 42.7025 68.0806C43.4537 68.3365 44.1901 68.6314 44.9284 68.9254C45.3316 69.0859 45.7341 69.2434 46.1433 69.3868C46.1433 69.4861 46.1433 69.5853 46.1433 69.6876C46.2299 69.7006 46.3165 69.7135 46.4058 69.7269C47.0654 69.8432 47.6267 69.9905 48.2166 70.3266C48.8864 70.7055 49.5681 70.9494 50.29 71.1912C51.1191 71.4701 51.8827 71.7755 52.651 72.2108C53.2568 72.5229 53.8967 72.7358 54.5334 72.9674C55.0318 73.1546 55.5089 73.3691 55.989 73.6023C56.4346 73.8131 56.89 73.996 57.3463 74.1797C57.6582 74.3188 57.9534 74.4689 58.2545 74.6313C58.9084 74.9792 59.5816 75.2619 60.2636 75.5423C60.5184 75.6482 60.7731 75.7541 61.0277 75.8601C61.1492 75.9106 61.2707 75.9611 61.3958 76.0132C61.8072 76.1859 62.2153 76.3659 62.623 76.5479C63.2664 76.8328 63.9165 77.0924 64.5712 77.3467C65.3016 77.6304 66.02 77.9308 66.734 78.2583C67.7084 78.7037 68.696 79.1008 69.6934 79.4845C70.0533 79.6233 70.4125 79.7637 70.7718 79.9041C72.262 80.4833 73.7573 81.0266 75.276 81.5175C76.1695 81.8069 77.0536 82.1249 77.9381 82.4432C79.3829 82.9609 80.8292 83.4558 82.3021 83.8781C82.4268 83.9139 82.5514 83.9498 82.6798 83.9867C83.4048 84.1898 84.1311 84.3607 84.8682 84.5079C85.4051 84.621 85.9269 84.7792 86.4427 84.9724C88.1819 85.6193 89.9798 85.9725 91.8062 86.2084C92.45 86.295 93.0639 86.416 93.6912 86.5929C94.7248 86.8744 95.7673 87.0237 96.8247 87.1677C97.1546 87.213 97.4841 87.2609 97.8136 87.3092C101.347 87.8095 104.901 87.9327 108.463 87.9207C108.94 87.9194 109.416 87.9201 109.893 87.9218C119.27 87.9504 128.613 85.9541 137.515 82.9195C137.618 82.8848 137.722 82.8502 137.829 82.8144C139.528 82.2467 141.199 81.5966 142.871 80.9453C143.621 80.6531 144.37 80.3621 145.133 80.1067C145.662 79.9589 145.662 79.9589 145.951 79.6115C146.177 79.5141 146.407 79.4268 146.638 79.3455C146.848 79.2706 146.848 79.2706 147.061 79.1942C147.282 79.117 147.282 79.117 147.506 79.0383C148.678 78.6255 149.82 78.1703 150.956 77.6568C151.117 77.5845 151.277 77.5123 151.443 77.4378C152.127 77.1295 152.811 76.8199 153.494 76.51C154.348 76.1242 155.203 75.7451 156.067 75.3858C156.573 75.1744 157.075 74.9537 157.578 74.7341C158.46 74.3503 159.347 73.9829 160.239 73.6258C161.49 73.1301 161.49 73.1301 162.694 72.5227C162.967 72.3941 162.967 72.3941 163.539 72.3941C163.539 72.2949 163.539 72.1956 163.539 72.0934C163.647 72.0513 163.754 72.0093 163.865 71.9659C164.733 71.6215 165.587 71.2596 166.435 70.8623C168.531 69.8832 170.668 68.986 172.835 68.1957C173.277 68.0282 173.706 67.8417 174.138 67.6483C174.686 67.4026 175.232 67.189 175.8 66.9998C176.477 66.7705 177.12 66.4898 177.767 66.1822C178.879 65.6549 180.017 65.2343 181.17 64.8195C181.724 64.62 182.271 64.4058 182.816 64.1805C183.698 63.8189 184.591 63.5043 185.49 63.1947C185.919 63.0461 186.347 62.8953 186.775 62.7444C186.942 62.6854 187.11 62.6265 187.282 62.5657C187.615 62.4487 187.947 62.3315 188.279 62.2142C189.954 61.6253 191.644 61.0892 193.337 60.5599C193.906 60.3813 194.473 60.2003 195.037 60.0056C196.164 59.6172 197.271 59.3244 198.441 59.1134C198.734 59.0602 199.027 59.0053 199.317 58.934C200.358 58.6827 201.367 58.6663 202.433 58.6734C202.605 58.6723 202.778 58.6711 202.955 58.6699C204.551 58.6736 205.906 58.9922 207.41 59.5286C207.541 59.5737 207.672 59.6188 207.807 59.6652C209.071 60.111 209.071 60.111 209.582 60.5154C209.582 60.6146 209.582 60.7139 209.582 60.8161C209.863 60.9652 210.144 61.112 210.431 61.2472C212.331 62.2234 213.814 64.2413 214.64 66.2427C214.73 66.5299 214.73 66.5299 214.73 66.981C214.824 66.981 214.919 66.981 215.016 66.981C215.085 67.1875 215.153 67.3943 215.221 67.6013C215.279 67.774 215.279 67.774 215.337 67.9502C216.221 71.1005 215.5 74.6218 214.113 77.4595C213.638 78.3594 213.08 79.1344 212.442 79.9123C212.323 80.0696 212.323 80.0696 212.202 80.23C211.534 81.0942 210.743 81.6985 209.868 82.3181C209.787 82.3766 209.706 82.4351 209.622 82.4953C207.901 83.7322 207.901 83.7322 206.902 84.0226C206.508 84.1444 206.143 84.3095 205.766 84.4796C204.971 84.834 204.166 85.1443 203.351 85.444C203.005 85.5725 202.663 85.7046 202.321 85.8416C201.637 86.1124 200.945 86.3532 200.252 86.594C199.948 86.7 199.645 86.8059 199.342 86.9118C199.175 86.9699 199.008 87.028 198.837 87.0878C197.888 87.4186 196.941 87.7514 195.993 88.0838C195.564 88.2341 195.135 88.3844 194.707 88.5346C194.5 88.6072 194.293 88.6798 194.086 88.7525C193.536 88.9454 192.985 89.1377 192.435 89.3291C192.319 89.3696 192.203 89.41 192.084 89.4516C191.862 89.5288 191.64 89.6059 191.419 89.6827C190.759 89.9129 190.114 90.1671 189.472 90.4477C188.941 90.6686 188.398 90.8507 187.855 91.0351C187.323 91.2232 186.799 91.4313 186.275 91.6406C186.092 91.7124 185.91 91.784 185.728 91.8556C185.243 92.0461 184.759 92.2375 184.275 92.4292C184.009 92.5342 183.742 92.6381 183.476 92.7419C182.637 93.0729 181.84 93.4379 181.045 93.8702C180.699 94.0461 180.355 94.1854 179.992 94.319C177.671 95.1805 175.474 96.2881 173.336 97.5668C173.221 97.6357 173.105 97.7046 172.986 97.7756C172.882 97.8388 172.777 97.9021 172.669 97.9672C172.404 98.1062 172.404 98.1062 172.118 98.1062C172.071 98.2551 172.024 98.404 171.975 98.5573C171.599 98.8365 171.233 99.0196 170.805 99.1964C170.075 99.5162 169.465 100.025 168.83 100.512C168.707 100.602 168.585 100.692 168.459 100.785C167.268 101.669 166.032 102.647 165.032 103.77C164.826 103.97 164.826 103.97 164.54 103.97C164.54 104.07 164.54 104.169 164.54 104.271C164.335 104.478 164.335 104.478 164.048 104.722C163.333 105.364 162.721 106.078 162.109 106.827C161.947 107.026 161.947 107.026 161.782 107.228C161.006 108.2 160.329 109.218 159.678 110.286C159.591 110.425 159.504 110.565 159.415 110.709C158.46 112.257 157.672 113.862 156.961 115.548C156.901 115.69 156.841 115.832 156.779 115.978C156.321 117.092 155.955 118.23 155.6 119.383C155.471 119.801 155.335 120.211 155.19 120.623C154.683 122.085 154.471 123.524 154.297 125.064C154.261 125.34 154.219 125.614 154.171 125.887C153.89 127.51 153.902 129.129 153.905 130.773C153.905 130.927 153.905 131.082 153.905 131.242C153.906 133.293 153.978 135.316 154.227 137.351C154.245 137.504 154.245 137.504 154.264 137.66C154.387 138.636 154.544 139.568 154.817 140.509C154.873 140.875 154.927 141.241 154.977 141.608C155.35 144.015 156.095 146.417 157.06 148.631C157.313 149.237 157.5 149.858 157.682 150.49C157.83 150.914 158.024 151.25 158.248 151.636C158.472 152.093 158.685 152.555 158.901 153.017C160.188 155.746 161.61 158.381 163.28 160.872C163.529 161.243 163.774 161.616 164.019 161.99C164.901 163.329 165.797 164.645 166.77 165.914C167.829 167.324 167.829 167.324 167.829 167.724C167.923 167.724 168.017 167.724 168.115 167.724C168.311 167.989 168.506 168.256 168.693 168.528C169.024 169.001 169.368 169.463 169.714 169.924C169.852 170.107 169.99 170.291 170.128 170.474C170.197 170.567 170.267 170.66 170.338 170.755C170.539 171.023 170.738 171.292 170.937 171.562C171.671 172.557 172.427 173.523 173.213 174.473C173.778 175.162 174.299 175.879 174.812 176.612C175.23 177.2 175.671 177.764 176.116 178.329C176.212 178.452 176.309 178.575 176.408 178.701C176.515 178.835 176.622 178.968 176.732 179.106C176.98 179.453 176.98 179.453 176.98 179.754C177.122 179.803 177.263 179.853 177.409 179.904C177.636 180.163 177.636 180.163 177.892 180.515C177.992 180.651 178.093 180.787 178.196 180.927C178.252 181.003 178.309 181.079 178.367 181.158C178.723 181.635 179.09 182.103 179.456 182.573C180.051 183.34 180.638 184.113 181.216 184.894C181.852 185.752 182.513 186.584 183.184 187.411C183.748 188.107 184.297 188.816 184.845 189.527C184.91 189.611 184.975 189.695 185.042 189.782C188.182 193.845 190.582 197.526 190.191 203.023C189.946 205.169 189.074 207.064 187.847 208.774C187.79 208.854 187.733 208.934 187.674 209.017C186.64 210.451 186.64 210.451 185.989 210.728C185.989 210.828 185.989 210.927 185.989 211.029C185.677 211.262 185.366 211.477 185.041 211.687C184.864 211.804 184.686 211.921 184.508 212.038C184.421 212.096 184.333 212.153 184.242 212.212C184.003 212.371 183.769 212.539 183.535 212.707C181.317 214.218 177.844 214.403 175.304 213.97C172.515 213.342 170.183 211.837 168.115 209.826C167.988 209.725 167.86 209.624 167.729 209.52C167.368 209.196 167.207 208.904 166.971 208.473C166.692 208.092 166.397 207.724 166.104 207.355C165.427 206.491 164.787 205.611 164.177 204.695C163.75 204.057 163.301 203.447 162.832 202.843C162.492 202.398 162.162 201.945 161.832 201.49C161.272 200.72 160.696 199.964 160.108 199.216C160.014 199.095 159.919 198.974 159.821 198.85C159.715 198.716 159.608 198.583 159.498 198.446C159.249 198.098 159.249 198.098 159.249 197.797C159.164 197.759 159.079 197.721 158.991 197.682C158.636 197.472 158.479 197.276 158.239 196.933C158.153 196.812 158.068 196.692 157.979 196.568C157.879 196.428 157.779 196.288 157.676 196.143C157.419 195.791 157.159 195.44 156.899 195.091C156.831 195 156.764 194.909 156.694 194.815C156.221 194.183 155.724 193.58 155.21 192.984C154.977 192.705 154.766 192.421 154.557 192.121C154.112 191.481 153.624 190.88 153.134 190.277C152.715 189.76 152.302 189.238 151.894 188.71C151.335 187.987 150.761 187.278 150.183 186.572C149.684 185.962 149.188 185.349 148.695 184.734C147.477 183.219 146.214 181.753 144.932 180.298C144.783 180.129 144.634 179.96 144.485 179.791C144.376 179.667 144.376 179.667 144.265 179.541C143.879 179.101 143.499 178.657 143.127 178.203C142.283 177.18 141.352 176.271 140.374 175.393C140.209 175.243 140.043 175.092 139.877 174.942C139.697 174.779 139.518 174.616 139.338 174.453C139.252 174.375 139.165 174.297 139.077 174.216C138.733 173.906 138.395 173.605 138.026 173.328C137.952 173.265 137.877 173.202 137.801 173.138C137.801 173.038 137.801 172.939 137.801 172.837C137.717 172.819 137.634 172.802 137.547 172.784C137.208 172.68 136.99 172.544 136.702 172.331C136.605 172.26 136.507 172.188 136.407 172.115C136.307 172.04 136.206 171.965 136.103 171.888C135.903 171.741 135.704 171.594 135.505 171.448C135.41 171.377 135.315 171.306 135.217 171.234C134.961 171.048 134.702 170.872 134.439 170.697C134.322 170.609 134.204 170.521 134.083 170.431C134.083 170.332 134.083 170.233 134.083 170.13C133.937 170.112 133.937 170.112 133.788 170.093C133.243 169.946 132.847 169.686 132.367 169.378C132.367 169.279 132.367 169.18 132.367 169.078C131.989 168.979 131.612 168.879 131.223 168.777C131.223 168.678 131.223 168.579 131.223 168.476C131.068 168.453 131.068 168.453 130.91 168.429C130.464 168.315 130.187 168.123 129.793 167.875C129.45 167.722 129.104 167.581 128.756 167.44C128.351 167.268 127.955 167.081 127.559 166.888C126.699 166.473 125.845 166.127 124.933 165.857C124.622 165.763 124.312 165.664 124.002 165.564C122.651 165.13 121.3 164.725 119.926 164.381C119.498 164.266 119.498 164.266 119.212 164.116C118.804 164.052 118.397 163.994 117.988 163.942C117.804 163.918 117.804 163.918 117.616 163.893C117.355 163.859 117.094 163.825 116.833 163.791C116.438 163.741 116.044 163.689 115.65 163.637C113.686 163.38 111.765 163.183 109.783 163.185C109.635 163.185 109.635 163.185 109.485 163.185C108.043 163.187 106.61 163.237 105.172 163.345C105.014 163.357 104.857 163.369 104.695 163.381C103.287 163.498 101.893 163.698 100.518 164.036C100.148 164.127 99.7773 164.208 99.4058 164.29C97.629 164.691 95.901 165.181 94.1793 165.789C94.0887 165.82 93.9981 165.852 93.9047 165.885C92.4729 166.39 91.1207 166.993 89.7734 167.706C89.6756 167.757 89.5778 167.809 89.477 167.862C88.7509 168.246 88.0373 168.651 87.3303 169.073C87.0387 169.228 87.0387 169.228 86.7527 169.228C86.7527 169.327 86.7527 169.427 86.7527 169.529C86.6086 169.589 86.4645 169.649 86.3159 169.711C85.743 169.97 85.2455 170.305 84.733 170.675C84.6402 170.742 84.5474 170.808 84.4518 170.876C84.2614 171.013 84.0711 171.149 83.8812 171.286C83.6287 171.468 83.3746 171.647 83.1199 171.825C81.9731 172.637 80.9226 173.529 79.8892 174.491C79.7513 174.619 79.6134 174.747 79.4714 174.879C77.8346 176.43 76.209 178.035 74.8554 179.869C74.5985 180.205 74.5985 180.205 74.2879 180.522C73.994 180.801 73.994 180.801 73.8835 181.257C73.7892 181.257 73.6948 181.257 73.5976 181.257C73.5504 181.406 73.5032 181.555 73.4546 181.708C73.258 181.874 73.0613 182.039 72.8642 182.203C72.3985 182.65 72.0242 183.177 71.632 183.694C71.2687 184.168 70.8869 184.619 70.4964 185.068C70.2779 185.329 70.2779 185.329 70.1658 185.768C70.001 185.946 69.8354 186.124 69.6653 186.297C68.9242 187.068 68.2815 187.935 67.6366 188.794C67.5703 188.882 67.504 188.97 67.4357 189.061C67.135 189.465 66.8538 189.866 66.5882 190.297C66.2915 190.751 65.9654 191.098 65.59 191.482C65.3155 191.799 65.0503 192.124 64.7857 192.45C64.7115 192.541 64.6372 192.633 64.5607 192.727C63.4336 194.123 62.3782 195.576 61.3366 197.044C60.9871 197.535 60.6355 198.024 60.2815 198.511C60.172 198.663 60.0625 198.814 59.9497 198.97C59.6768 199.337 59.3892 199.688 59.0951 200.037C58.6054 200.62 58.153 201.226 57.7077 201.848C57.5453 202.072 57.383 202.297 57.2206 202.522C57.1386 202.636 57.0565 202.75 56.972 202.867C56.3455 203.736 55.7151 204.603 55.0833 205.468C54.8794 205.748 54.6769 206.029 54.4747 206.31C52.1502 209.518 49.6334 211.994 46.0092 213.426C45.8976 213.47 45.786 213.514 45.671 213.56C43.0706 214.542 39.3134 214.419 36.7684 213.256C36.6062 213.166 36.444 213.077 36.2769 212.984C36.2769 212.885 36.2769 212.785 36.2769 212.683C36.097 212.637 35.9171 212.59 35.7317 212.542C33.6449 211.8 31.8896 209.362 30.8432 207.42C30.7862 207.317 30.7293 207.214 30.6706 207.108C29.3982 204.642 29.1593 201.096 29.8423 198.399C29.8718 198.268 29.9012 198.138 29.9316 198.003C30.6869 194.831 32.5171 192.375 34.3553 189.814C34.6391 189.418 34.9218 189.022 35.2044 188.625C35.3064 188.482 35.4083 188.339 35.5133 188.192C35.7619 187.843 36.0103 187.495 36.2584 187.145C37.2741 185.718 38.303 184.302 39.34 182.891C40.2108 181.705 41.0678 180.509 41.921 179.308C42.1349 179.008 42.3496 178.709 42.5646 178.409C43.5513 177.033 44.516 175.642 45.4721 174.243C45.7272 173.87 45.9834 173.499 46.2399 173.127C46.3254 173.003 46.411 172.879 46.4991 172.751C46.664 172.512 46.829 172.273 46.9942 172.034C47.068 171.927 47.1418 171.82 47.2179 171.709C47.2832 171.615 47.3485 171.52 47.4158 171.422C47.5828 171.18 47.5828 171.18 47.7162 170.882C47.8105 170.882 47.9049 170.882 48.0021 170.882C48.0361 170.778 48.07 170.674 48.1049 170.567C48.3224 170.049 48.6139 169.615 48.9316 169.162C49.0606 168.975 49.1896 168.788 49.3187 168.601C49.3848 168.506 49.4509 168.41 49.519 168.312C50.4372 166.989 51.3257 165.658 52.1489 164.266C52.3154 163.99 52.4822 163.715 52.6493 163.439C52.7323 163.302 52.8152 163.164 52.9007 163.023C53.0625 162.756 53.2256 162.49 53.39 162.225C54.1262 161.032 54.7846 159.797 55.4377 158.552C55.5144 158.406 55.591 158.26 55.67 158.11C55.8802 157.707 56.0883 157.303 56.2956 156.898C56.3435 156.805 56.3913 156.712 56.4406 156.616C56.5982 156.31 56.7553 156.003 56.9123 155.695C56.9623 155.598 57.0124 155.501 57.064 155.4C57.2674 155.001 57.4459 154.623 57.5825 154.192C57.6769 154.192 57.7713 154.192 57.8685 154.192C57.8803 154.068 57.8921 153.944 57.9043 153.816C57.9946 153.373 58.083 153.114 58.2796 152.726C58.5574 152.171 58.7224 151.627 58.8829 151.024C59.0087 150.596 59.1566 150.181 59.312 149.764C59.7316 148.637 60.0606 147.508 60.337 146.333C60.4717 145.762 60.619 145.207 60.806 144.652C61.0389 143.936 61.1485 143.221 61.2467 142.473C61.2809 142.221 61.3155 141.969 61.3506 141.717C61.3651 141.607 61.3796 141.498 61.3945 141.385C61.4433 141.11 61.4433 141.11 61.5863 140.809C61.616 140.579 61.6388 140.347 61.6578 140.116C61.6696 139.978 61.6814 139.84 61.6935 139.697C61.7053 139.553 61.7171 139.408 61.7293 139.259C61.7528 138.974 61.7766 138.69 61.8008 138.405C61.8111 138.279 61.8214 138.153 61.8321 138.022C61.8723 137.652 61.8723 137.652 61.9448 137.302C62.0159 136.897 62.0353 136.525 62.0383 136.113C62.0404 135.882 62.0404 135.882 62.0425 135.646C62.0431 135.481 62.0437 135.315 62.0443 135.144C62.0451 134.97 62.0459 134.797 62.0468 134.617C62.0481 134.248 62.0491 133.878 62.0496 133.508C62.051 132.955 62.0554 132.403 62.06 131.85C62.0787 127.477 61.6328 122.715 59.9475 118.654C59.7765 118.227 59.6499 117.836 59.5325 117.393C59.2902 116.519 58.9352 115.718 58.5567 114.9C58.4868 114.748 58.417 114.596 58.3451 114.44C57.8178 113.308 57.247 112.237 56.5816 111.188C56.4861 111.033 56.3906 110.877 56.2923 110.717C55.7132 109.785 55.1015 108.896 54.4367 108.03C54.34 107.901 54.2432 107.771 54.1435 107.637C53.3493 106.588 52.4893 105.656 51.5769 104.722C51.3994 104.535 51.3994 104.535 51.2183 104.345C49.735 102.787 48.1371 101.485 46.4292 100.211C46.3373 100.142 46.2453 100.072 46.1506 100C44.6507 98.8697 43.0385 97.9974 41.3955 97.1201C41.0325 96.9233 40.6738 96.7204 40.3164 96.5127C38.5545 95.4937 36.7242 94.6999 34.8541 93.9262C34.231 93.6684 33.6096 93.4063 32.9881 93.1443C32.9881 93.045 32.9881 92.9458 32.9881 92.8435C32.8021 92.8307 32.6161 92.8179 32.4245 92.8048C31.6809 92.7176 31.0909 92.4515 30.4232 92.1105C29.646 91.7299 28.8982 91.389 28.0677 91.1572C27.2085 90.8833 26.382 90.4964 25.5525 90.137C25.5525 90.0377 25.5525 89.9385 25.5525 89.8363C25.3874 89.8301 25.2222 89.8239 25.0521 89.8175C24.1827 89.7162 23.4069 89.3658 22.5994 89.0345C21.993 88.7865 21.3803 88.5652 20.7623 88.3514C20.6584 88.3154 20.5545 88.2793 20.4474 88.2422C20.224 88.1648 20.0006 88.0876 19.7772 88.0105C19.0504 87.7594 18.3246 87.5056 17.5986 87.2519C17.4546 87.2018 17.3105 87.1517 17.1621 87.1001C16.5652 86.8916 15.9709 86.6817 15.384 86.4437C14.7537 86.1908 14.1088 86.0003 13.4608 85.8046C12.2124 85.4188 11.0185 84.9651 9.8235 84.4232C9.68286 84.3598 9.54222 84.2964 9.39732 84.2311C6.35625 82.8194 3.9044 80.946 1.95899 78.1079C1.87494 77.9955 1.79089 77.8831 1.70429 77.7672C-0.00797965 75.3604 -0.201433 71.6008 0.141369 68.742C0.724621 65.4416 2.96507 62.8274 5.48015 60.9289C8.71403 58.7527 12.4514 58.4085 16.1687 58.9178Z" fill="#FBFBF8"/>
<path d="M112.765 1.52507C112.765 1.62436 112.765 1.72365 112.765 1.82594C112.853 1.8432 112.941 1.86046 113.032 1.87824C115.237 2.52448 116.707 5.22286 117.729 7.09119C118.579 8.67637 119.161 10.3387 119.685 12.0556C119.724 12.1841 119.764 12.3127 119.804 12.4452C120.272 13.9857 120.679 15.5143 120.942 17.1034C121.029 17.62 121.029 17.62 121.184 18.1031C121.348 18.7042 121.442 19.2975 121.518 19.9141C121.533 20.034 121.548 20.154 121.564 20.2775C121.596 20.533 121.628 20.7886 121.659 21.0441C121.704 21.4146 121.752 21.7848 121.799 22.155C121.886 22.838 121.964 23.5217 122.039 24.206C122.076 24.5439 122.114 24.8817 122.152 25.2195C122.577 29.0134 122.603 32.7846 122.583 36.599C122.58 37.2373 122.579 37.8755 122.579 38.5138C122.578 39.2904 122.576 40.0669 122.574 40.8434C122.573 40.9855 122.573 41.1276 122.573 41.274C122.566 44.0671 122.453 46.8491 122.205 49.6315C122.176 49.964 122.148 50.2965 122.121 50.6291C122.102 50.8449 122.083 51.0606 122.064 51.2764C122.048 51.4658 122.031 51.6553 122.015 51.8505C121.943 52.3591 121.809 52.7916 121.641 53.2749C121.597 53.5144 121.561 53.7554 121.534 53.9972C121.517 54.1304 121.501 54.2636 121.484 54.4009C121.468 54.5413 121.451 54.6817 121.434 54.8263C121.26 56.1801 121.009 57.4842 120.672 58.8052C120.579 59.175 120.493 59.546 120.408 59.9176C119.927 62.0126 119.44 64.1257 118.481 66.062C118.396 66.2392 118.311 66.4165 118.224 66.5991C117.152 68.8147 116.027 70.789 114.269 72.5307C114.174 72.6308 114.079 72.7308 113.981 72.8339C113.354 73.4475 112.638 73.838 111.862 74.2325C111.762 74.2834 111.662 74.3342 111.559 74.3866C109.475 75.3983 107.091 75.3408 104.897 74.6873C103.25 74.093 101.967 73.1294 100.88 71.7785C100.809 71.7093 100.738 71.6401 100.664 71.5687C99.3231 70.1908 98.4493 68.3229 97.6631 66.5908C97.5096 66.2564 97.3497 65.9248 97.1812 65.5977C96.9697 65.1607 96.8236 64.741 96.687 64.2756C96.5286 63.7409 96.3689 63.2083 96.1934 62.6789C95.7765 61.4136 95.4452 60.1392 95.145 58.8411C95.1087 58.6841 95.0724 58.5272 95.0349 58.3656C94.9234 57.8729 94.8168 57.3796 94.7125 56.8854C94.6751 56.7083 94.6376 56.5313 94.599 56.3489C94.2763 54.7339 94.0847 53.1117 93.9141 51.4743C93.8668 51.0231 93.8173 50.5721 93.7676 50.1211C93.3299 46.0582 93.3229 41.9932 93.321 37.9117C93.3209 37.7777 93.3207 37.6438 93.3206 37.5057C93.3177 34.1543 93.3333 30.8109 93.5655 27.4658C93.575 27.3267 93.5845 27.1876 93.5942 27.0443C93.6214 26.661 93.6508 26.278 93.6818 25.8951C93.6901 25.7886 93.6985 25.6822 93.707 25.5725C93.7633 24.9505 93.8815 24.3714 94.0409 23.7705C94.1383 23.3778 94.1856 22.9863 94.2283 22.5843C94.2464 22.4205 94.2644 22.2568 94.283 22.088C94.3006 21.9204 94.3183 21.7528 94.3364 21.58C94.5528 19.5602 94.8479 17.5826 95.2955 15.6002C95.335 15.4237 95.3744 15.2472 95.4151 15.0653C95.6911 13.8479 95.993 12.6452 96.3673 11.4538C96.4666 11.4538 96.5659 11.4538 96.6682 11.4538C96.6829 11.3627 96.6977 11.2715 96.7129 11.1776C97.0024 9.55531 97.6639 8.2138 98.4734 6.79032C98.5506 6.64604 98.6278 6.50177 98.7073 6.35312C100.248 3.55157 102.732 1.17466 105.85 0.242255C108.356 -0.360647 110.595 0.19686 112.765 1.52507Z" fill="#FBFBFA"/>
</svg>
