<svg width="1182" height="489" viewBox="0 0 1182 489" fill="none" xmlns="http://www.w3.org/2000/svg">
<path d="M151.8 389.62C119.078 389.62 91.417 384.391 68.8156 373.934C46.5516 363.477 29.5163 349.14 17.7096 330.924C5.90296 312.371 -0.000374593 291.456 -0.000374593 268.18H70.3336C70.3336 277.963 73.0323 287.577 78.4296 297.022C83.827 306.13 92.429 313.551 104.236 319.286C116.38 325.021 132.234 327.888 151.8 327.888C169.341 327.888 184.015 325.358 195.822 320.298C207.628 315.238 216.399 308.66 222.134 300.564C227.868 292.131 230.736 282.685 230.736 272.228C230.736 259.072 225.17 248.615 214.038 240.856C202.906 232.76 185.702 227.7 162.426 225.676L130.042 223.146C94.6216 220.11 66.2856 209.147 45.0336 190.256C24.119 171.028 13.6616 145.728 13.6616 114.356C13.6616 90.7426 19.2276 70.5026 30.3596 53.636C41.4916 36.432 57.009 23.276 76.9116 14.168C97.1516 4.72262 120.765 -4.22001e-05 147.752 -4.22001e-05C175.75 -4.22001e-05 199.87 4.89129 220.11 14.6739C240.35 24.4566 256.036 38.2873 267.168 56.166C278.3 73.7073 283.866 94.4533 283.866 118.404H213.532C213.532 108.284 211.002 99.0073 205.942 90.574C201.219 81.8033 193.966 74.888 184.184 69.828C174.738 64.4306 162.594 61.732 147.752 61.732C133.584 61.732 121.777 64.0933 112.332 68.816C102.886 73.5386 95.8023 79.948 91.0796 88.044C86.357 96.14 83.9956 104.911 83.9956 114.356C83.9956 125.825 88.2123 135.945 96.6456 144.716C105.079 153.149 118.404 158.041 136.62 159.39L169.004 162.426C195.316 164.45 218.423 170.016 238.326 179.124C258.228 188.232 273.577 200.545 284.372 216.062C295.504 231.579 301.07 250.301 301.07 272.228C301.07 295.504 294.998 316.081 282.854 333.96C270.71 351.501 253.337 365.163 230.736 374.946C208.472 384.729 182.16 389.62 151.8 389.62ZM480.613 383.548C455.313 383.548 434.398 380.343 417.869 373.934C401.677 367.187 389.533 356.055 381.437 340.538C373.341 324.683 369.293 303.431 369.293 276.782L369.799 27.83H435.579L435.073 281.336C435.073 294.829 438.615 305.287 445.699 312.708C453.12 319.792 463.577 323.334 477.071 323.334H520.081V383.548H480.613ZM325.777 156.86V105.248H520.081V156.86H325.777ZM571.017 488.29V428.076H622.629C632.411 428.076 640.507 426.727 646.917 424.028C653.663 421.667 659.229 417.619 663.615 411.884C668 406.487 671.373 398.897 673.735 389.114L747.611 105.248H814.909L733.443 404.294C728.045 424.871 720.455 441.232 710.673 453.376C700.89 465.857 688.24 474.797 672.723 480.194C657.543 485.591 638.652 488.29 616.051 488.29H571.017ZM656.531 373.934V318.274H715.227V373.934H656.531ZM632.749 373.934L543.693 105.248H614.533L699.035 373.934H632.749ZM866.786 380.006V10.626H937.12V380.006H866.786ZM832.378 63.25V10.626H937.12V63.25H832.378ZM1017.42 380.006V105.248H1073.08V221.628H1071.56C1071.56 182.16 1079.99 152.306 1096.86 132.066C1113.72 111.826 1138.52 101.706 1171.24 101.706H1181.36V162.932H1162.13C1138.52 162.932 1120.13 169.341 1106.98 182.16C1094.16 194.641 1087.75 212.857 1087.75 236.808V380.006H1017.42Z" fill="black"/>
</svg>
